# xmcd CD database file
#
# Track frame offsets:
#	150
#	13570
#	28559
#	42458
#	54810
#	66829
#	80165
#	94977
#	109538
#	121993
#	136782
#	149158
#	164535
#	179152
#	193629
#	207647
#	218809
#	229403
#	244354
#	255994
#
# Disc length: 3605 seconds
#
# Revision: 0
# Processed by: cddbd v1.5.1PL2 Copyright (c) Steve Scherf et al.
# Submitted via: CDex 1.51
#
DISCID=2f0e1314
DTITLE=Ella Fitzgerald - Ella Fitzgerald Vol. 4 - Ella And Company
DYEAR=1900
DGENRE=Jazz
TTITLE0=Cow Cow Boggie (with The Ink Spots) - 1943
TTITLE1=And Her Tears Flowd Like Wine (With The Song Spinners and Johnny Long's Orchestra) - 1944
TTITLE2=Cry You Out Of My Heart (With The Delta Rhythm Boys) - 1945
TTITLE3=Stone Cold Dead In The Market (With Louis Jordan And His Tympany Five) - 1945
TTITLE4=Petootie Pie ( With Louis Jordan And His Tympany Five) - 1945
TTITLE5=You Won't Be Satisfied Until You Break My Heart (With Louis Armstrong And Bob Haggart's Orchestra) - 1946
TTITLE6=The Frim Fram Sauce (With Louis Armstrong And Bob Haggart's Orchestra) - 1946
TTITLE7=(I Love You) For Sentimental Reasons (With The Delta Rhythm Boys) - 1946
TTITLE8=It's A Pity To Say Goodnight (With The Delta Rhythm Boys) - 1946
TTITLE9=My Happiness (With The Song Spinners) - 1948
TTITLE10=Baby It's Cold Outside (With Louis Jordan And his Tympany Five) - 1949
TTITLE11=I Gotta Have My Baby Back - With The Mills Brothers) - 1949
TTITLE12=Ain't Nobody's Business But My Own (With Louis Jordan And His Tympany Five) - 1950
TTITLE13=Can Anyone Explain? (No! No! No!) (With Louis Armstrong And Sy Oliver's Orchestra) - 1950
TTITLE14=Dream A Little Dream Of Me (With Louis Armstrong And Sy Oliver's Orchestra) - 1950
TTITLE15=That Old Feeling (With The Day Dreamers) - 1947
TTITLE16=Who Wals in When I Walk Out? ( (With Louis Armstrong And Dave Barbour's Orchestra) - 1951
TTITLE17=Would You Like To Take A Walk? (With Louis Armstrong And Dave Barbour's Orchestra) - 1951
TTITLE18=Necessary Evil (With Louis Armstrong And Dave Barbour's Orchestra) - 1951
TTITLE19=Oops! (With Louis Armstrong And Dave Barbour's Orchestra) - 1951
EXTD=
EXTT0=
EXTT1=
EXTT2=
EXTT3=
EXTT4=
EXTT5=
EXTT6=
EXTT7=
EXTT8=
EXTT9=
EXTT10=
EXTT11=
EXTT12=
EXTT13=
EXTT14=
EXTT15=
EXTT16=
EXTT17=
EXTT18=
EXTT19=
PLAYORDER=
